<svg id="Capa_1" enable-background="new 0 0 512 512" height="512" viewBox="0 0 512 512" width="512" xmlns="http://www.w3.org/2000/svg"><g><g><path d="m41.984 70.539c0 4.133 3.35 7.483 7.483 7.483s7.483-3.35 7.483-7.483-3.35-7.483-7.483-7.483-7.483 3.35-7.483 7.483z"/><path d="m79.652 70.539c0 4.133 3.35 7.483 7.483 7.483s7.483-3.35 7.483-7.483-3.35-7.483-7.483-7.483c-4.132 0-7.483 3.35-7.483 7.483z"/><path d="m117.321 70.539c0 4.133 3.35 7.483 7.483 7.483s7.483-3.35 7.483-7.483-3.35-7.483-7.483-7.483-7.483 3.35-7.483 7.483z"/><path d="m336.507 178.482h10.125c4.133 0 7.483-3.35 7.483-7.483s-3.35-7.483-7.483-7.483h-10.125c-4.133 0-7.483 3.35-7.483 7.483s3.35 7.483 7.483 7.483z"/><path d="m336.507 208.242h133.879c4.133 0 7.483-3.35 7.483-7.483s-3.35-7.483-7.483-7.483h-133.879c-4.133 0-7.483 3.35-7.483 7.483s3.35 7.483 7.483 7.483z"/><path d="m336.507 238.385h133.879c4.133 0 7.483-3.35 7.483-7.483s-3.35-7.483-7.483-7.483h-133.879c-4.133 0-7.483 3.35-7.483 7.483 0 4.134 3.35 7.483 7.483 7.483z"/><path d="m336.507 268.529h133.879c4.133 0 7.483-3.35 7.483-7.483s-3.35-7.483-7.483-7.483h-133.879c-4.133 0-7.483 3.35-7.483 7.483 0 4.134 3.35 7.483 7.483 7.483z"/><path d="m336.507 298.673h133.879c4.133 0 7.483-3.35 7.483-7.483s-3.35-7.483-7.483-7.483h-133.879c-4.133 0-7.483 3.35-7.483 7.483s3.35 7.483 7.483 7.483z"/><path d="m168.145 200.9c-3.788-1.655-8.198.068-9.855 3.854l-20.431 46.679c-1.657 3.785.069 8.198 3.854 9.855.977.427 1.994.629 2.997.629 2.882 0 5.629-1.675 6.859-4.484l20.431-46.679c1.657-3.784-.069-8.196-3.855-9.854z"/><path d="m205.635 205.856c-2.285-3.443-6.928-4.382-10.372-2.099-3.444 2.285-4.383 6.929-2.098 10.373l11.029 16.624-11.104 17.419c-2.221 3.484-1.197 8.11 2.287 10.332 1.247.795 2.639 1.174 4.015 1.174 2.471 0 4.89-1.224 6.317-3.462l13.72-21.523c1.591-2.495 1.561-5.693-.075-8.159z"/><path d="m114.595 203.758c-3.443-2.282-8.087-1.344-10.372 2.099l-13.72 20.679c-1.636 2.466-1.665 5.664-.075 8.159l13.72 21.523c1.427 2.239 3.846 3.462 6.317 3.462 1.376 0 2.769-.379 4.015-1.174 3.485-2.221 4.509-6.847 2.287-10.332l-11.104-17.419 11.029-16.624c2.286-3.444 1.347-8.088-2.097-10.373z"/><path d="m484.542 34.5h-63.515c-4.133 0-7.483 3.35-7.483 7.483s3.35 7.483 7.483 7.483h63.515c6.888 0 12.493 5.604 12.493 12.493v29.51h-482.069v-29.51c0-6.888 5.604-12.493 12.493-12.493h359.108c4.133 0 7.483-3.35 7.483-7.483s-3.35-7.483-7.483-7.483h-359.108c-15.141 0-27.459 12.318-27.459 27.459v301.464c0 15.141 12.318 27.458 27.459 27.458h186.485c-.581 3.637-1.32 8.206-2.17 13.336-.676 4.076 2.082 7.93 6.159 8.605 4.074.676 7.93-2.081 8.605-6.16 1.049-6.329 1.935-11.842 2.561-15.781h53.798c2.294 14.468 8.08 50.008 12.908 71.653h-79.612c1.275-5.72 2.704-12.799 4.272-21.171.761-4.062-1.915-7.972-5.977-8.733-4.063-.757-7.972 1.916-8.733 5.978-1.865 9.956-3.51 17.965-4.913 23.927h-9.521c-4.133 0-7.483 3.35-7.483 7.483s3.35 7.483 7.483 7.483h129.36c4.133 0 7.483-3.35 7.483-7.483s-3.35-7.483-7.483-7.483h-9.524c-4.547-19.307-10.471-55.212-13.102-71.653h186.487c15.141 0 27.458-12.317 27.458-27.458v-301.465c0-15.141-12.318-27.459-27.458-27.459zm-469.576 109.266h279.926v174.658h-279.926zm482.068 219.656c0 6.888-5.604 12.493-12.493 12.493h-457.082c-6.888 0-12.493-5.604-12.493-12.493v-30.032h482.069v30.032zm0-44.998h-187.176v-174.658h187.177v174.658zm0-189.624h-194.659-287.409v-22.365h482.069v22.365z"/></g></g></svg>